# Blender v2.93.4 OBJ File: 'AirPlane.blend'
# www.blender.org
mtllib AirPlaneProp.mtl
o Cylinder.001
v -0.000001 1.554174 -1.695028
v -0.000001 1.554174 -1.988956
v 0.199263 1.636711 -1.695028
v 0.221727 1.718359 -2.030088
v 0.281801 1.835974 -1.695028
v 0.272083 1.835974 -2.030193
v 0.199264 2.035237 -1.695028
v 0.221728 1.953589 -2.030088
v 0.000001 2.117775 -1.695028
v 0.000001 2.117775 -1.988956
v -0.199263 2.035239 -1.695028
v -0.221727 1.953590 -2.030088
v -0.281801 1.835975 -1.695028
v -0.272083 1.835975 -2.030193
v -0.199264 1.636712 -1.695028
v -0.221728 1.718360 -2.030088
v 0.214349 1.725737 -2.067881
v -0.000001 1.587319 -2.109013
v 0.258373 1.835974 -2.067776
v 0.214350 1.946211 -2.067881
v 0.000001 2.084630 -2.109013
v -0.214349 1.946212 -2.067881
v -0.258373 1.835975 -2.067776
v -0.214350 1.725738 -2.067881
v 0.122948 1.716283 -2.198540
v 0.001700 1.666060 -2.198540
v 0.173172 1.837531 -2.198540
v 0.122949 1.958780 -2.198540
v 0.001701 2.009003 -2.198540
v -0.119548 1.958780 -2.198540
v -0.169771 1.837532 -2.198540
v -0.119549 1.716283 -2.198540
v 0.014218 1.817505 -2.282133
v -0.002695 1.810499 -2.282133
v 0.021224 1.834418 -2.282133
v 0.014218 1.851331 -2.282133
v -0.002695 1.858337 -2.282133
v -0.019608 1.851331 -2.282133
v -0.026614 1.834418 -2.282133
v -0.019608 1.817505 -2.282133
v 0.281801 1.835974 -1.988956
v 0.199263 1.636711 -1.988956
v 0.199264 2.035237 -1.988956
v -0.281801 1.835975 -1.988956
v -0.199263 2.035239 -1.988956
v -0.199264 1.636712 -1.988956
v 0.248655 1.835974 -2.109013
v 0.175825 1.660148 -2.109013
v 0.175826 2.011800 -2.109013
v -0.248655 1.835975 -2.109013
v -0.175825 2.011801 -2.109013
v -0.175826 1.660149 -2.109013
v -1.808242 1.838907 -2.043808
v -1.780899 1.832054 -2.055677
v 1.780899 1.839895 -2.055677
v 1.808242 1.833042 -2.043808
v 1.613808 1.717640 -2.108662
v 1.613809 1.946909 -1.976294
v -1.613808 1.954309 -2.108662
v -1.613809 1.725040 -1.976294
v 1.599094 1.726874 -2.119245
v 1.599095 1.951457 -1.989582
v -1.599094 1.945075 -2.119245
v -1.599095 1.720492 -1.989582
v 1.137512 1.616274 -2.102123
v 0.675930 1.615511 -2.085002
v 0.765882 1.838598 -2.063743
v 1.273390 1.841223 -2.059710
v 0.685755 2.067538 -2.012157
v 1.149782 2.063071 -1.994225
v 1.137514 2.064220 -2.015682
v 0.675932 2.060709 -2.041781
v 0.784136 1.834014 -2.034731
v 1.296189 1.832054 -2.039270
v 1.149780 1.598984 -2.082471
v 0.685753 1.599464 -2.056279
v -0.685755 1.604411 -2.012157
v -1.149782 1.608878 -1.994225
v -1.137514 1.607729 -2.015682
v -0.675932 1.611240 -2.041781
v -0.685754 2.072485 -2.056279
v -1.149781 2.072965 -2.082471
v -1.296189 1.839895 -2.039270
v -0.784136 1.837935 -2.034731
v -0.765882 1.833351 -2.063743
v -1.273390 1.830727 -2.059710
v -1.137512 2.055676 -2.102123
v -0.675930 2.056438 -2.085002
vt 0.792559 0.344784
vt 0.792559 0.270816
vt 0.821140 0.269778
vt 0.821140 0.343747
vt 0.821139 0.185492
vt 0.821139 0.110634
vt 0.841636 0.113752
vt 0.841636 0.188610
vt 0.870621 0.113751
vt 0.870621 0.188610
vt 0.768938 0.185898
vt 0.768938 0.111911
vt 0.792558 0.115505
vt 0.792558 0.189492
vt 0.821139 0.114473
vt 0.821139 0.188460
vt 0.821139 0.340657
vt 0.821139 0.265847
vt 0.841637 0.269051
vt 0.841637 0.343860
vt 0.935629 0.271195
vt 0.930269 0.269887
vt 0.929179 0.212578
vt 0.932385 0.214212
vt 0.870621 0.269050
vt 0.870621 0.343860
vt 0.768938 0.341173
vt 0.768938 0.267204
vt 0.572669 0.444618
vt 0.572669 0.415633
vt 0.593165 0.395138
vt 0.622149 0.395138
vt 0.642644 0.415633
vt 0.642644 0.444618
vt 0.622149 0.465113
vt 0.593165 0.465113
vt 0.828601 0.739066
vt 0.805376 0.735515
vt 0.815469 0.709054
vt 0.831484 0.711503
vt 0.012851 0.172215
vt 0.044554 0.192353
vt 0.044346 0.262669
vt 0.028737 0.235953
vt 0.793554 0.084355
vt 0.818773 0.083445
vt 0.772712 0.236482
vt 0.793555 0.239669
vt 0.818773 0.238753
vt 0.958758 0.271185
vt 0.953397 0.269875
vt 0.952293 0.212569
vt 0.955501 0.214204
vt 0.263884 0.136943
vt 0.233024 0.118233
vt 0.233322 0.048541
vt 0.248801 0.073533
vt 0.772712 0.081184
vt 0.833443 0.683156
vt 0.835677 0.683498
vt 0.884075 0.737041
vt 0.863922 0.733891
vt 0.874482 0.707759
vt 0.888379 0.709931
vt 0.828600 0.566007
vt 0.805376 0.562474
vt 0.814869 0.536087
vt 0.830883 0.538524
vt 0.884074 0.563994
vt 0.863921 0.560929
vt 0.874717 0.534899
vt 0.888614 0.537013
vt 0.912573 0.737040
vt 0.908031 0.709931
vt 0.856700 0.564993
vt 0.850261 0.537824
vt 0.912572 0.563994
vt 0.908266 0.537013
vt 0.856701 0.738046
vt 0.850862 0.710799
vt 0.965806 0.941450
vt 0.963868 0.939512
vt 0.963868 0.936770
vt 0.965806 0.934832
vt 0.968547 0.934832
vt 0.970486 0.936770
vt 0.970486 0.939512
vt 0.968547 0.941450
vt 0.958033 0.914849
vt 0.977685 0.914849
vt 0.834335 0.510065
vt 0.836569 0.510405
vt 0.977685 0.962293
vt 0.958033 0.962293
vt 0.897011 0.683156
vt 0.899752 0.683156
vt 0.839272 0.510307
vt 0.896888 0.510065
vt 0.899629 0.510065
vt 0.838380 0.683400
vt 0.830121 0.101221
vt 0.842136 0.103065
vt 0.859328 0.103061
vt 0.830122 0.256471
vt 0.842136 0.258367
vt 0.859329 0.258361
vt 0.842840 0.093235
vt 0.831417 0.091514
vt 0.825254 0.079797
vt 0.843340 0.082549
vt 0.858791 0.093239
vt 0.868916 0.082548
vt 0.842841 0.248535
vt 0.831418 0.246768
vt 0.825255 0.235024
vt 0.843341 0.237851
vt 0.858792 0.248540
vt 0.868916 0.237851
vt 0.427626 0.227115
vt 0.448402 0.203525
vt 0.451245 0.206837
vt 0.430902 0.228784
vt 0.234269 0.044788
vt 0.250072 0.071515
vt 0.451245 0.227106
vt 0.472010 0.203525
vt 0.474854 0.206838
vt 0.454522 0.228776
vt 0.172756 0.044788
vt 0.188559 0.071515
vt 0.187288 0.073533
vt 0.171809 0.048541
vt 0.202371 0.136842
vt 0.217960 0.073482
vt 0.108831 0.192353
vt 0.140858 0.172281
vt 0.124498 0.235985
vt 0.108623 0.262669
vt 0.977633 0.308054
vt 0.983168 0.307088
vt 0.986198 0.370954
vt 0.983144 0.372537
vt 0.202371 0.136943
vt 0.171511 0.118233
vt 0.077129 0.172215
vt 0.093014 0.235953
vt 0.488176 0.324672
vt 0.493830 0.323687
vt 0.496909 0.388949
vt 0.493789 0.390565
vt 0.076581 0.172281
vt 0.060221 0.235985
vt 0.140858 0.136842
vt 0.156448 0.073482
vt 0.553912 0.040933
vt 0.569725 0.034182
vt 0.585639 0.096557
vt 0.554105 0.109746
vt 0.585639 0.158916
vt 0.554297 0.178559
vt 0.976418 0.190021
vt 0.986198 0.189492
vt 0.983157 0.246589
vt 0.975398 0.247222
vt 0.739218 0.242430
vt 0.724394 0.248322
vt 0.709109 0.186266
vt 0.738978 0.174227
vt 0.708740 0.124235
vt 0.738738 0.106024
vt 0.754022 0.248371
vt 0.768938 0.186365
vt 0.768938 0.124334
vt 0.975398 0.394981
vt 0.965679 0.394271
vt 0.957793 0.330378
vt 0.965443 0.331494
vt 0.538114 0.034149
vt 0.522736 0.096492
vt 0.523272 0.158852
vt 0.679020 0.242430
vt 0.664196 0.248322
vt 0.648911 0.186266
vt 0.678780 0.174227
vt 0.648542 0.124235
vt 0.678540 0.106024
vt 0.987200 0.190018
vt 0.996981 0.189492
vt 0.993957 0.246587
vt 0.986198 0.247218
vt 0.993968 0.307086
vt 0.988435 0.308049
vt 0.601016 0.034149
vt 0.616815 0.040933
vt 0.617008 0.109746
vt 0.585639 0.096492
vt 0.617200 0.178559
vt 0.586175 0.158852
vt 0.693824 0.248371
vt 0.708740 0.186365
vt 0.708740 0.124334
vt 0.632628 0.034182
vt 0.648542 0.096557
vt 0.648542 0.158916
vt 0.952293 0.394988
vt 0.942575 0.394281
vt 0.934668 0.330391
vt 0.942317 0.331504
vn 0.3827 -0.9239 0.0000
vn 0.9239 -0.3827 0.0000
vn 0.9239 0.3827 0.0000
vn 0.3827 0.9239 0.0000
vn -0.3827 0.9239 0.0000
vn -0.9239 0.3827 0.0000
vn -0.2413 -0.9700 -0.0283
vn -0.9239 -0.3827 0.0000
vn -0.3827 -0.9239 0.0000
vn -0.0000 0.0000 1.0000
vn -0.2959 -0.7145 -0.6340
vn -0.0551 -0.3586 0.9319
vn -0.3708 0.8952 -0.2472
vn -0.3708 -0.8952 -0.2472
vn 0.3708 -0.8952 -0.2472
vn 0.2413 0.9700 -0.0283
vn -0.0513 0.3424 -0.9382
vn 0.3708 0.8952 -0.2472
vn -0.2050 -0.4949 -0.8444
vn -0.7188 0.2978 -0.6282
vn 0.3027 0.7309 -0.6117
vn 0.7265 -0.3009 -0.6178
vn -0.7142 -0.2958 -0.6344
vn -0.3006 0.7258 -0.6188
vn 0.7312 0.3029 -0.6112
vn 0.2981 -0.7196 -0.6272
vn 0.0000 0.0000 -1.0000
vn -0.4904 0.2031 -0.8475
vn 0.1953 0.4715 -0.8600
vn 0.4757 -0.1970 -0.8573
vn -0.4968 -0.2058 -0.8431
vn -0.1988 0.4799 -0.8545
vn 0.4697 0.1946 -0.8611
vn 0.2013 -0.4861 -0.8504
vn 0.8965 -0.3761 -0.2340
vn 0.8965 0.3761 -0.2340
vn -0.8965 0.3761 -0.2340
vn -0.8965 -0.3761 -0.2340
vn 0.9000 -0.3675 -0.2344
vn 0.9000 0.3675 -0.2344
vn -0.9000 0.3675 -0.2344
vn -0.9000 -0.3675 -0.2344
vn -0.8952 -0.3708 -0.2472
vn 0.8952 -0.3708 -0.2472
vn -0.8952 0.3708 -0.2472
vn 0.8952 0.3708 -0.2472
vn -0.4111 -0.8620 -0.2967
vn 0.4111 -0.1741 -0.8948
vn 0.4111 0.8620 -0.2967
vn -0.4111 0.1741 -0.8948
vn 0.0727 0.3735 -0.9248
vn -0.0734 0.3602 0.9300
vn 0.1352 -0.6819 -0.7189
vn 0.0513 -0.3424 -0.9382
vn 0.0551 0.3586 0.9319
vn -0.1352 0.6819 -0.7189
vn 0.0734 -0.3602 0.9300
vn -0.0727 -0.3735 -0.9248
vn 0.0227 -0.0703 0.9973
vn 0.0307 -0.1529 0.9878
vn -0.2433 -0.9329 -0.2656
vn -0.0259 -0.8286 -0.5592
vn 0.0220 0.0744 -0.9970
vn 0.0297 0.1613 -0.9865
vn -0.0061 0.0664 -0.9978
vn -0.0139 0.1475 -0.9890
vn -0.2307 0.9623 -0.1439
vn 0.0064 0.9935 -0.1132
vn -0.0060 -0.0670 0.9977
vn -0.0146 -0.1515 0.9883
vn -0.0220 -0.0744 -0.9970
vn -0.0297 -0.1613 -0.9865
vn 0.2433 0.9329 -0.2656
vn 0.0259 0.8286 -0.5592
vn 0.0060 0.0670 0.9977
vn 0.0146 0.1515 0.9883
vn 0.0061 -0.0664 -0.9978
vn 0.0139 -0.1475 -0.9890
vn -0.0227 0.0703 0.9973
vn -0.0307 0.1529 0.9878
vn 0.2307 -0.9623 -0.1439
vn -0.0064 -0.9935 -0.1132
usemtl UVTex
s off
f 1/1/1 2/2/1 42/3/1 3/4/1
f 3/5/2 42/6/2 41/7/2 5/8/2
f 5/8/3 41/7/3 43/9/3 7/10/3
f 7/11/4 43/12/4 10/13/4 9/14/4
f 9/14/5 10/13/5 45/15/5 11/16/5
f 11/17/6 45/18/6 44/19/6 13/20/6
f 79/21/7 78/22/7 60/23/7 64/24/7
f 13/20/8 44/19/8 46/25/8 15/26/8
f 15/27/9 46/28/9 2/2/9 1/1/9
f 1/29/10 3/30/10 5/31/10 7/32/10 9/33/10 11/34/10 13/35/10 15/36/10
f 18/37/11 52/38/11 32/39/11 26/40/11
f 70/41/12 74/42/12 56/43/12 58/44/12
f 45/15/13 10/13/13 21/45/13 51/46/13
f 2/2/14 46/28/14 52/47/14 18/48/14
f 42/3/15 2/2/15 18/48/15 48/49/15
f 71/50/16 70/51/16 58/52/16 62/53/16
f 65/54/17 68/55/17 55/56/17 61/57/17
f 10/13/18 43/12/18 49/58/18 21/45/18
f 26/40/19 32/39/19 40/59/19 34/60/19
f 50/61/20 51/62/20 30/63/20 31/64/20
f 21/65/21 49/66/21 28/67/21 29/68/21
f 47/69/22 48/70/22 25/71/22 27/72/22
f 52/73/23 50/61/23 31/64/23 32/74/23
f 51/75/24 21/65/24 29/68/24 30/76/24
f 49/77/25 47/69/25 27/72/25 28/78/25
f 48/79/26 18/37/26 26/40/26 25/80/26
f 33/81/27 34/82/27 40/83/27 39/84/27 38/85/27 37/86/27 36/87/27 35/88/27
f 31/89/28 30/90/28 38/85/28 39/84/28
f 29/68/29 28/67/29 36/91/29 37/92/29
f 27/93/30 25/94/30 33/81/30 35/88/30
f 32/74/31 31/64/31 39/95/31 40/96/31
f 30/76/32 29/68/32 37/92/32 38/97/32
f 28/78/33 27/72/33 35/98/33 36/99/33
f 25/80/34 26/40/34 34/60/34 33/100/34
f 4/101/35 6/102/35 41/7/35 42/6/35
f 6/102/36 8/103/36 43/9/36 41/7/36
f 12/104/37 14/105/37 44/19/37 45/18/37
f 14/105/38 16/106/38 46/25/38 44/19/38
f 19/107/39 17/108/39 48/109/39 47/110/39
f 20/111/40 19/107/40 47/110/40 49/112/40
f 23/113/41 22/114/41 51/115/41 50/116/41
f 24/117/42 23/113/42 50/116/42 52/118/42
f 16/106/43 24/117/43 52/118/43 46/25/43
f 17/108/44 4/101/44 42/6/44 48/109/44
f 22/114/45 12/104/45 45/18/45 51/115/45
f 8/103/46 20/111/46 49/112/46 43/9/46
f 60/119/47 53/120/47 54/121/47 64/122/47
f 56/123/48 57/124/48 61/57/48 55/56/48
f 58/125/49 56/126/49 55/127/49 62/128/49
f 53/129/50 59/130/50 63/131/50 54/132/50
f 68/55/51 71/133/51 62/134/51 55/56/51
f 83/135/52 82/136/52 59/137/52 53/138/52
f 75/139/53 65/140/53 61/141/53 57/142/53
f 87/143/54 86/144/54 54/132/54 63/131/54
f 78/145/55 83/135/55 53/138/55 60/146/55
f 82/147/56 87/148/56 63/149/56 59/150/56
f 74/42/57 75/151/57 57/152/57 56/43/57
f 86/144/58 79/153/58 64/154/58 54/132/58
f 6/155/59 4/156/59 76/157/59 73/158/59
f 73/158/60 76/157/60 75/159/60 74/160/60
f 4/161/61 17/162/61 66/163/61 76/164/61
f 76/164/62 66/163/62 65/140/62 75/139/62
f 19/165/63 20/166/63 72/167/63 67/168/63
f 67/168/64 72/167/64 71/169/64 68/170/64
f 17/171/65 19/165/65 67/168/65 66/172/65
f 66/172/66 67/168/66 68/170/66 65/173/66
f 20/174/67 8/175/67 69/176/67 72/177/67
f 72/177/68 69/176/68 70/51/68 71/50/68
f 8/178/69 6/155/69 73/158/69 69/179/69
f 69/179/70 73/158/70 74/160/70 70/180/70
f 23/181/71 24/182/71 80/183/71 85/184/71
f 85/184/72 80/183/72 79/185/72 86/186/72
f 12/187/73 22/188/73 88/189/73 81/190/73
f 81/190/74 88/189/74 87/191/74 82/192/74
f 16/193/75 14/194/75 84/195/75 77/196/75
f 77/196/76 84/195/76 83/197/76 78/198/76
f 22/199/77 23/181/77 85/184/77 88/200/77
f 88/200/78 85/184/78 86/186/78 87/201/78
f 14/194/79 12/202/79 81/203/79 84/195/79
f 84/195/80 81/203/80 82/204/80 83/197/80
f 24/205/81 16/206/81 77/207/81 80/208/81
f 80/208/82 77/207/82 78/22/82 79/21/82
