# Blender v2.93.4 OBJ File: ''
# www.blender.org
mtllib lowpolytree2.mtl
o Cylinder
v 0.015674 2.466367 -0.253986
v 0.019167 3.227034 0.022685
v 0.028745 3.227034 0.026171
v 0.199847 2.466368 -0.186952
v 0.033842 3.227034 0.034998
v 0.292234 2.403041 -0.023413
v 0.032072 3.227034 0.045036
v 0.263809 2.466367 0.175798
v 0.024263 3.227034 0.051588
v 0.113670 2.466367 0.301780
v 0.014070 3.227034 0.051588
v -0.087932 2.403041 0.295584
v 0.006262 3.227034 0.045036
v -0.232462 2.466367 0.175798
v 0.004492 3.227034 0.034998
v -0.266496 2.466367 -0.017217
v 0.009589 3.227034 0.026171
v -0.174109 2.403041 -0.193148
v -0.005440 -0.809443 -0.939428
v 0.637348 -0.809443 -0.705472
v 0.979368 -1.003520 -0.113076
v 0.860586 -1.003520 0.560572
v 0.336580 -0.809443 1.000265
v -0.353069 -0.872769 0.994068
v -0.871465 -1.003520 0.560572
v -0.990247 -1.003520 -0.113076
v -0.653837 -1.066847 -0.711668
v -1.162461 -1.054853 -0.150182
v -0.862932 -0.453387 -0.094124
v -0.569643 -0.516713 -0.618026
v -0.766733 -1.118179 -0.851516
v -0.002290 -0.453387 -0.816288
v -0.006855 -1.054853 -1.119851
v -1.023078 -1.054853 0.640299
v -0.759126 -0.453387 0.494589
v -0.413802 -1.118179 1.150053
v -0.306797 -0.516713 0.872648
v 0.394483 -1.054853 1.156250
v 0.296607 -0.453387 0.878845
v 1.009368 -1.054853 0.640300
v 0.754545 -0.453387 0.494589
v 1.143143 -1.118179 -0.156378
v 0.858351 -0.453387 -0.094124
v 0.747414 -1.054853 -0.845319
v 0.559453 -0.453387 -0.611830
v -0.470645 1.692862 -0.047718
v -0.162981 2.516458 0.010068
v -0.106769 2.453131 -0.103204
v -0.309076 1.629535 -0.343475
v 0.015024 2.516458 -0.139296
v 0.010725 1.692862 -0.451635
v -0.412585 1.692862 0.281558
v -0.141511 2.516458 0.131830
v -0.162062 1.629536 0.490282
v -0.052405 2.453131 0.205109
v 0.177903 1.692862 0.496478
v 0.076845 2.516458 0.211305
v 0.434034 1.692862 0.281558
v 0.171559 2.516458 0.131830
v 0.486486 1.629535 -0.053915
v 0.193029 2.516458 0.010068
v 0.324917 1.692862 -0.337279
v 0.131209 2.516458 -0.097008
v 0.005286 0.842699 -0.671042
v 0.010529 1.745409 -0.315061
v 0.242392 1.745409 -0.230669
v 0.463775 0.842699 -0.504165
v 0.365764 1.745409 -0.016983
v 0.702124 0.779372 -0.087815
v 0.322917 1.745409 0.226012
v 0.623007 0.842699 0.398883
v 0.133901 1.745409 0.384616
v 0.249243 0.842699 0.712509
v -0.118452 1.682083 0.378420
v -0.244281 0.779373 0.706312
v -0.301860 1.745409 0.226012
v -0.612436 0.842699 0.398883
v -0.344706 1.745409 -0.016983
v -0.697161 0.842699 -0.081619
v -0.458813 0.779373 -0.510362
v -0.226943 1.682082 -0.236866
v -0.864248 0.078844 -0.105654
v -0.545192 0.894761 -0.046827
v -0.359524 0.831434 -0.384325
v -0.569569 0.015518 -0.631965
v 0.005569 0.894761 -0.508971
v 0.000399 0.078844 -0.831178
v -0.759959 0.078845 0.485799
v -0.478762 0.894761 0.329916
v -0.305499 0.015518 0.865646
v -0.191317 0.831434 0.569622
v 0.300687 0.078845 0.871843
v 0.196847 0.894761 0.575818
v 0.760756 0.078844 0.485799
v 0.489901 0.894761 0.329917
v 0.859436 0.015518 -0.111850
v 0.556331 0.894761 -0.046827
v 0.564756 0.078845 -0.625769
v 0.365054 0.894761 -0.378129
v -0.003388 -0.512941 -0.997131
v 0.001149 0.136518 -0.681816
v 0.474390 0.136519 -0.509570
v 0.669916 -0.512940 -0.752068
v 0.726197 0.136518 -0.073428
v 1.022565 -0.576267 -0.137744
v 0.638746 0.136519 0.422534
v 0.903752 -0.512940 0.574081
v 0.252955 0.136519 0.746250
v 0.354870 -0.512940 1.034648
v -0.256267 0.073192 0.740054
v -0.367254 -0.576267 1.028452
v -0.636448 0.136519 0.422534
v -0.910528 -0.512940 0.574081
v -0.723899 0.136518 -0.073428
v -1.034949 -0.512941 -0.131548
v -0.682301 -0.576267 -0.758265
v -0.477702 0.073192 -0.515766
v -0.018886 -1.314390 -0.264436
v -0.018886 -0.720161 -0.373037
v 0.231064 -0.720161 -0.282063
v 0.161257 -1.314390 -0.198870
v 0.364060 -0.720161 -0.051708
v 0.257109 -1.314390 -0.032850
v 0.317871 -0.720161 0.210242
v 0.223820 -1.314390 0.155942
v 0.114110 -0.720161 0.381218
v 0.076966 -1.314390 0.279167
v -0.151881 -0.720161 0.381218
v -0.114738 -1.314390 0.279166
v -0.355642 -0.720161 0.210242
v -0.261591 -1.314390 0.155942
v -0.401831 -0.720161 -0.051708
v -0.294880 -1.314390 -0.032850
v -0.268836 -0.720161 -0.282063
v -0.199028 -1.314390 -0.198870
v -0.018886 -1.895607 -0.373037
v 0.231064 -1.895607 -0.282063
v 0.364060 -1.895607 -0.051708
v 0.317871 -1.895607 0.210242
v 0.114110 -1.895607 0.381218
v -0.151881 -1.895607 0.381218
v -0.355642 -1.895607 0.210242
v -0.401831 -1.895607 -0.051708
v -0.268836 -1.895607 -0.282063
vt 0.973954 0.797629
vt 0.995024 0.682884
vt 0.996180 0.683106
vt 0.996180 0.801899
vt 0.978068 0.513092
vt 0.978068 0.632041
vt 0.976585 0.632230
vt 0.949370 0.507770
vt 0.975401 0.632645
vt 0.926784 0.524709
vt 0.936695 0.278922
vt 0.942135 0.160475
vt 0.943632 0.160369
vt 0.965485 0.276890
vt 0.944761 0.160027
vt 0.987839 0.278922
vt 0.768065 0.979608
vt 0.812811 0.860520
vt 0.813933 0.860855
vt 0.789518 0.976760
vt 0.815427 0.861003
vt 0.818239 0.979608
vt 0.304727 0.342606
vt 0.303427 0.341855
vt 0.302914 0.340445
vt 0.303427 0.339034
vt 0.304727 0.338284
vt 0.306205 0.338545
vt 0.307170 0.339694
vt 0.307170 0.341196
vt 0.306205 0.342345
vt 0.943172 0.798171
vt 0.993587 0.682451
vt 0.926220 0.780831
vt 0.992542 0.682010
vt 0.026831 0.166904
vt 0.060501 0.072162
vt 0.147107 0.022979
vt 0.246447 0.039666
vt 0.312038 0.114415
vt 0.311894 0.216359
vt 0.248549 0.294235
vt 0.149498 0.312464
vt 0.060878 0.264281
vt 0.203235 0.545992
vt 0.299102 0.530203
vt 0.302914 0.598681
vt 0.211515 0.637582
vt 0.814976 0.513482
vt 0.723968 0.487819
vt 0.723695 0.398850
vt 0.817797 0.394508
vt 0.203235 0.427790
vt 0.299102 0.442172
vt 0.211515 0.338284
vt 0.302914 0.375778
vt 0.455025 0.672656
vt 0.551852 0.661616
vt 0.555660 0.729327
vt 0.463097 0.763684
vt 0.460138 0.554564
vt 0.555660 0.573667
vt 0.584952 0.641101
vt 0.690940 0.639406
vt 0.699362 0.712501
vt 0.605031 0.741052
vt 0.605031 0.525703
vt 0.699362 0.552119
vt 0.723695 0.329818
vt 0.817797 0.301817
vt 0.844644 0.115906
vt 0.902504 0.000000
vt 0.913950 0.012718
vt 0.878777 0.134587
vt 0.933814 0.006227
vt 0.929312 0.132746
vt 0.950775 0.984684
vt 0.968433 0.857090
vt 0.986635 0.857499
vt 1.000000 0.985792
vt 0.914065 0.985792
vt 0.955383 0.863327
vt 0.876301 0.985142
vt 0.860646 0.857090
vt 0.874642 0.862544
vt 0.914065 0.985166
vt 0.827064 0.985166
vt 0.842438 0.857098
vt 0.887848 0.160027
vt 0.918715 0.294281
vt 0.904381 0.299395
vt 0.849311 0.182806
vt 0.936695 0.162533
vt 0.936695 0.291898
vt 0.948075 0.006908
vt 0.967879 0.134587
vt 0.155638 0.399706
vt 0.016574 0.399857
vt 0.017000 0.371367
vt 0.156480 0.343369
vt 0.699362 0.838961
vt 0.700979 0.696560
vt 0.736890 0.692033
vt 0.770541 0.838961
vt 0.765559 0.682010
vt 0.827064 0.810190
vt 0.774365 0.852210
vt 0.756876 0.993159
vt 0.720541 0.993159
vt 0.702515 0.852210
vt 0.692660 0.990864
vt 0.647428 0.856118
vt 0.529401 0.993855
vt 0.573735 0.858362
vt 0.600528 0.854518
vt 0.583399 0.995270
vt 0.636863 0.854518
vt 0.655250 0.995270
vt 0.156480 0.472605
vt 0.021585 0.437496
vt 0.135126 0.523998
vt 0.006201 0.462713
vt 0.601459 0.301817
vt 0.723695 0.343195
vt 0.709771 0.385077
vt 0.584952 0.367833
vt 0.719165 0.441862
vt 0.594347 0.456716
vt 0.830905 0.652714
vt 0.958139 0.668130
vt 0.958139 0.724465
vt 0.830905 0.741155
vt 0.834778 0.586006
vt 0.957256 0.626016
vt 0.699362 0.614137
vt 0.826925 0.599364
vt 0.827603 0.642577
vt 0.705351 0.682010
vt 0.700426 0.525703
vt 0.827603 0.543033
vt 0.001088 0.597425
vt 0.138158 0.597192
vt 0.143548 0.643969
vt 0.018320 0.672665
vt 0.018320 0.511537
vt 0.143548 0.541333
vt 0.723695 0.485805
vt 0.601459 0.525703
vt 0.919135 0.384558
vt 0.817797 0.388736
vt 0.817797 0.330581
vt 0.919135 0.301817
vt 0.441427 0.769408
vt 0.542915 0.797076
vt 0.535820 0.870611
vt 0.422562 0.872225
vt 0.542915 0.932189
vt 0.441427 0.961641
vt 0.741709 0.000000
vt 0.844644 0.018945
vt 0.842205 0.093067
vt 0.738240 0.105457
vt 0.844644 0.150036
vt 0.745361 0.186610
vt 0.639766 0.000000
vt 0.738240 0.038986
vt 0.736482 0.094756
vt 0.633365 0.079787
vt 0.736482 0.168918
vt 0.633365 0.185301
vt 0.917615 0.490914
vt 0.819491 0.463914
vt 0.738240 0.226771
vt 0.639766 0.267171
vt 0.487638 0.177524
vt 0.484075 0.193316
vt 0.457684 0.181153
vt 0.470642 0.170379
vt 0.447875 0.152985
vt 0.464801 0.152081
vt 0.505456 0.173794
vt 0.512320 0.187403
vt 0.515759 0.160934
vt 0.529203 0.166182
vt 0.516106 0.141341
vt 0.529203 0.135960
vt 0.503955 0.127803
vt 0.509941 0.114500
vt 0.485931 0.125225
vt 0.480431 0.111844
vt 0.470468 0.134813
vt 0.456858 0.125612
vt 0.436702 0.151668
vt 0.416543 0.152499
vt 0.432479 0.106008
vt 0.448463 0.117358
vt 0.473673 0.082048
vt 0.479570 0.098630
vt 0.523277 0.088240
vt 0.515469 0.104247
vt 0.555653 0.125278
vt 0.539361 0.131579
vt 0.555653 0.175830
vt 0.539110 0.169256
vt 0.525703 0.212653
vt 0.517259 0.196059
vt 0.477390 0.222107
vt 0.481606 0.203036
vt 0.448833 0.186922
vt 0.433321 0.199768
vt 0.475954 0.230584
vt 0.471079 0.253458
vt 0.407412 0.219825
vt 0.425827 0.204518
vt 0.382898 0.151350
vt 0.406816 0.150525
vt 0.531296 0.220100
vt 0.541662 0.240087
vt 0.565956 0.177972
vt 0.586134 0.185967
vt 0.566164 0.120337
vt 0.586134 0.112848
vt 0.529376 0.077738
vt 0.539214 0.058517
vt 0.473772 0.068696
vt 0.467328 0.048397
vt 0.425369 0.097442
vt 0.406561 0.083648
vt 0.356725 0.427743
vt 0.334672 0.428609
vt 0.364006 0.345346
vt 0.381323 0.357924
vt 0.439136 0.301817
vt 0.445137 0.320240
vt 0.527365 0.314820
vt 0.518307 0.332326
vt 0.584952 0.381840
vt 0.566597 0.388525
vt 0.584952 0.471517
vt 0.566440 0.463951
vt 0.529822 0.538321
vt 0.520367 0.519743
vt 0.442900 0.554564
vt 0.447480 0.533363
vt 0.381882 0.498439
vt 0.364859 0.512645
vt 0.468870 0.275946
vt 0.463529 0.301817
vt 0.370698 0.251370
vt 0.391259 0.234091
vt 0.334672 0.151320
vt 0.361363 0.150385
vt 0.555417 0.259930
vt 0.567264 0.282621
vt 0.610404 0.193538
vt 0.633365 0.202764
vt 0.610566 0.104270
vt 0.633365 0.096047
vt 0.553362 0.037460
vt 0.564801 0.015970
vt 0.466533 0.022962
vt 0.459756 0.000000
vt 0.390707 0.067560
vt 0.369843 0.052046
vt 0.000000 0.169549
vt 0.039510 0.058375
vt 0.140408 0.000000
vt 0.257951 0.018174
vt 0.334672 0.107956
vt 0.936436 0.370529
vt 0.969060 0.373920
vt 0.969060 0.487246
vt 0.937804 0.467350
vt 0.334672 0.227337
vt 0.260418 0.316893
vt 0.144187 0.338284
vt 0.040366 0.281500
vt 0.239004 0.910305
vt 0.244135 0.825380
vt 0.274698 0.822316
vt 0.261031 0.908097
vt 0.013833 0.909537
vt 0.007018 0.829233
vt 0.046025 0.830200
vt 0.041946 0.910234
vt 0.078199 0.824142
vt 0.065134 0.905868
vt 0.101010 0.907066
vt 0.095541 0.826934
vt 0.134710 0.826934
vt 0.129241 0.907066
vt 0.164716 0.820093
vt 0.150866 0.902135
vt 0.370858 0.907956
vt 0.384708 0.991265
vt 0.354702 0.985464
vt 0.349232 0.903775
vt 0.315532 0.985464
vt 0.321002 0.903775
vt 0.111704 0.736668
vt 0.111704 0.775837
vt 0.086526 0.805843
vt 0.047951 0.812645
vt 0.014029 0.793060
vt 0.000632 0.756253
vt 0.014029 0.719445
vt 0.047951 0.699860
vt 0.086526 0.706662
vt 0.210780 0.910226
vt 0.204975 0.825271
vt 0.189567 0.907897
vt 0.175541 0.822038
vt 0.164562 0.695269
vt 0.203063 0.702078
vt 0.228192 0.732089
vt 0.228192 0.771258
vt 0.203063 0.801259
vt 0.164562 0.808054
vt 0.130705 0.788463
vt 0.117334 0.751653
vt 0.130705 0.714848
vt 0.315532 0.817025
vt 0.299376 0.907956
vt 0.285526 0.822826
vt 0.204975 0.997008
vt 0.244135 0.997118
vt 0.354702 0.817025
vt 0.384708 0.822826
vt 0.134710 0.993519
vt 0.164716 0.986679
vt 0.095541 0.993519
vt 0.046025 0.996811
vt 0.078199 0.990752
vt 0.007018 0.995844
vt 0.274698 0.994054
vn 0.3238 0.3221 -0.8896
vn 0.8730 0.3022 -0.3827
vn 0.9536 0.2971 0.0477
vn 0.6109 0.3112 0.7280
vn -0.1164 0.2965 0.9479
vn -0.5313 0.3015 0.7917
vn -0.9327 0.3210 0.1645
vn 0.0000 1.0000 -0.0000
vn -0.3809 0.3169 -0.8686
vn -0.7898 0.3166 -0.5253
vn 0.0415 -0.9991 0.0024
vn -0.7667 0.4310 -0.4757
vn -0.3356 0.4304 -0.8379
vn -0.8898 0.4285 0.1569
vn -0.5511 0.4230 0.7193
vn -0.0455 0.4187 0.9070
vn 0.5844 0.4163 0.6965
vn 0.9079 0.3960 0.1376
vn 0.8023 0.4025 -0.4408
vn 0.3093 0.4266 -0.8499
vn -0.7838 0.3370 -0.5217
vn -0.3783 0.3367 -0.8623
vn -0.9279 0.3351 0.1636
vn -0.5277 0.3288 0.7832
vn -0.1127 0.3256 0.9388
vn 0.6078 0.3254 0.7244
vn 0.9437 0.3122 0.1093
vn 0.8444 0.3173 -0.4317
vn 0.3224 0.3342 -0.8857
vn 0.3209 0.3458 -0.8817
vn 0.8325 0.3304 -0.4447
vn 0.9366 0.3260 0.1283
vn 0.6047 0.3390 0.7207
vn -0.0735 0.3409 0.9372
vn -0.5534 0.3441 0.7585
vn -0.9230 0.3487 0.1627
vn -0.3579 0.3490 -0.8661
vn -0.7906 0.3500 -0.5024
vn -0.7957 0.3507 -0.4939
vn -0.3486 0.3496 -0.8696
vn -0.9228 0.3491 0.1627
vn -0.5664 0.3446 0.7487
vn -0.0551 0.3408 0.9385
vn 0.6048 0.3385 0.7208
vn 0.9359 0.3243 0.1375
vn 0.8290 0.3293 -0.4520
vn 0.3209 0.3461 -0.8816
vn 0.3114 0.4133 -0.8557
vn 0.8077 0.3910 -0.4412
vn 0.9129 0.3849 0.1357
vn 0.5881 0.4035 0.7009
vn -0.0509 0.4056 0.9126
vn -0.5513 0.4096 0.7268
vn -0.8960 0.4150 0.1580
vn -0.3404 0.4168 -0.8429
vn -0.7708 0.4174 -0.4812
vn 0.1824 -0.8628 0.4715
vn 0.4346 -0.8567 0.2778
vn 0.4511 -0.8889 -0.0795
vn 0.0338 -0.8164 -0.5765
vn 0.3326 -0.8240 -0.4586
vn -0.3049 -0.8804 -0.3633
vn -0.6502 -0.7582 0.0485
vn -0.6189 -0.7661 0.1734
vn -0.1439 -0.9072 0.3954
vn -0.1295 -0.9255 0.3559
vn -0.5359 -0.8196 0.2028
vn -0.5873 -0.8093 -0.0082
vn -0.2691 -0.9081 -0.3207
vn 0.1984 -0.8870 -0.4170
vn 0.1156 -0.8858 -0.4495
vn 0.3987 -0.9144 -0.0703
vn 0.3033 -0.9077 0.2901
vn 0.2296 -0.9091 0.3477
vn 0.2137 -0.9379 0.2733
vn 0.2322 -0.9377 0.2586
vn 0.3356 -0.9401 -0.0592
vn 0.1208 -0.9255 -0.3590
vn 0.1379 -0.9257 -0.3523
vn -0.2263 -0.9360 -0.2697
vn -0.5129 -0.8581 -0.0235
vn -0.4618 -0.8659 0.1920
vn -0.1107 -0.9462 0.3041
vn -0.1302 -0.9247 0.3577
vn -0.5031 -0.8320 0.2339
vn -0.5695 -0.8205 -0.0494
vn -0.2660 -0.9104 -0.3170
vn 0.1072 -0.9038 -0.4144
vn 0.1839 -0.9047 -0.3844
vn 0.3927 -0.9170 -0.0692
vn 0.2232 -0.9201 0.3218
vn 0.2799 -0.9193 0.2765
vn 0.2434 -0.9398 0.2401
vn 0.1938 -0.9402 0.2801
vn 0.3381 -0.9392 -0.0596
vn 0.1572 -0.9309 -0.3297
vn 0.0922 -0.9303 -0.3550
vn -0.2282 -0.9348 -0.2720
vn -0.4989 -0.8656 -0.0432
vn -0.4422 -0.8730 0.2057
vn -0.1133 -0.9435 0.3114
vn -0.2817 -0.5673 0.7738
vn -0.6966 -0.6658 0.2673
vn -0.4648 -0.8844 -0.0418
vn -0.5116 -0.7239 -0.4627
vn 0.0523 -0.5359 -0.8427
vn 0.4635 -0.7303 -0.5019
vn 0.2956 -0.9539 -0.0521
vn 0.3663 -0.7441 0.5587
vn 0.2118 -0.9540 0.2122
vn 0.3371 -0.1693 -0.9261
vn 0.8535 -0.1693 -0.4928
vn 0.9706 -0.1693 0.1711
vn 0.6335 -0.1693 0.7550
vn -0.0000 -0.1693 0.9856
vn -0.6335 -0.1693 0.7550
vn -0.9706 -0.1693 0.1711
vn -0.3371 -0.1693 -0.9261
vn -0.8535 -0.1693 -0.4928
vn 0.0000 -1.0000 -0.0000
vn -0.8530 0.1729 -0.4925
vn -0.3369 0.1729 -0.9255
vn -0.9700 0.1729 0.1710
vn -0.6331 0.1729 0.7545
vn -0.0000 0.1729 0.9849
vn 0.6331 0.1729 0.7545
vn 0.9700 0.1729 0.1710
vn 0.8530 0.1729 -0.4925
vn 0.3369 0.1729 -0.9255
usemtl Leaves
s 1
f 1/1/1 2/2/1 3/3/1 4/4/1
f 4/5/2 3/6/2 5/7/2 6/8/2
f 6/8/3 5/7/3 7/9/3 8/10/3
f 8/11/4 7/12/4 9/13/4 10/14/4
f 10/14/5 9/13/5 11/15/5 12/16/5
f 12/17/6 11/18/6 13/19/6 14/20/6
f 14/20/7 13/19/7 15/21/7 16/22/7
f 3/23/8 2/24/8 17/25/8 15/26/8 13/27/8 11/28/8 9/29/8 7/30/8 5/31/8
f 18/32/9 17/33/9 2/2/9 1/1/9
f 16/34/10 15/35/10 17/33/10 18/32/10
f 19/36/11 20/37/11 21/38/11 22/39/11 23/40/11 24/41/11 25/42/11 26/43/11 27/44/11
f 28/45/12 29/46/12 30/47/12 31/48/12
f 31/49/13 30/50/13 32/51/13 33/52/13
f 34/53/14 35/54/14 29/46/14 28/45/14
f 36/55/15 37/56/15 35/54/15 34/53/15
f 38/57/16 39/58/16 37/59/16 36/60/16
f 40/61/17 41/62/17 39/58/17 38/57/17
f 42/63/18 43/64/18 41/65/18 40/66/18
f 44/67/19 45/68/19 43/64/19 42/63/19
f 33/52/20 32/51/20 45/69/20 44/70/20
f 46/71/21 47/72/21 48/73/21 49/74/21
f 49/74/22 48/73/22 50/75/22 51/76/22
f 52/77/23 53/78/23 47/79/23 46/80/23
f 54/81/24 55/82/24 53/78/24 52/77/24
f 56/83/25 57/84/25 55/85/25 54/86/25
f 58/87/26 59/88/26 57/84/26 56/83/26
f 60/89/27 61/90/27 59/91/27 58/92/27
f 62/93/28 63/94/28 61/90/28 60/89/28
f 51/76/29 50/75/29 63/95/29 62/96/29
f 64/97/30 65/98/30 66/99/30 67/100/30
f 67/101/31 66/102/31 68/103/31 69/104/31
f 69/104/32 68/103/32 70/105/32 71/106/32
f 71/107/33 70/108/33 72/109/33 73/110/33
f 73/110/34 72/109/34 74/111/34 75/112/34
f 75/113/35 74/114/35 76/115/35 77/116/35
f 77/116/36 76/115/36 78/117/36 79/118/36
f 80/119/37 81/120/37 65/98/37 64/97/37
f 79/121/38 78/122/38 81/120/38 80/119/38
f 82/123/39 83/124/39 84/125/39 85/126/39
f 85/126/40 84/125/40 86/127/40 87/128/40
f 88/129/41 89/130/41 83/131/41 82/132/41
f 90/133/42 91/134/42 89/130/42 88/129/42
f 92/135/43 93/136/43 91/137/43 90/138/43
f 94/139/44 95/140/44 93/136/44 92/135/44
f 96/141/45 97/142/45 95/143/45 94/144/45
f 98/145/46 99/146/46 97/142/46 96/141/46
f 87/128/47 86/127/47 99/147/47 98/148/47
f 100/149/48 101/150/48 102/151/48 103/152/48
f 103/153/49 102/154/49 104/155/49 105/156/49
f 105/156/50 104/155/50 106/157/50 107/158/50
f 107/159/51 106/160/51 108/161/51 109/162/51
f 109/162/52 108/161/52 110/163/52 111/164/52
f 111/165/53 110/166/53 112/167/53 113/168/53
f 113/168/54 112/167/54 114/169/54 115/170/54
f 116/171/55 117/172/55 101/150/55 100/149/55
f 115/170/56 114/169/56 117/173/56 116/174/56
f 47/175/57 16/176/57 18/177/57 48/178/57
f 48/178/58 18/177/58 1/179/58 50/180/58
f 53/181/59 14/182/59 16/176/59 47/175/59
f 55/183/60 12/184/60 14/182/60 53/181/60
f 57/185/61 10/186/61 12/184/61 55/183/61
f 59/187/62 8/188/62 10/186/62 57/185/62
f 61/189/63 6/190/63 8/188/63 59/187/63
f 63/191/64 4/192/64 6/190/64 61/189/64
f 50/180/65 1/179/65 4/192/65 63/191/65
f 65/193/66 51/194/66 62/195/66 66/196/66
f 66/196/67 62/195/67 60/197/67 68/198/67
f 68/198/68 60/197/68 58/199/68 70/200/68
f 70/200/69 58/199/69 56/201/69 72/202/69
f 72/202/70 56/201/70 54/203/70 74/204/70
f 74/204/71 54/203/71 52/205/71 76/206/71
f 76/206/72 52/205/72 46/207/72 78/208/72
f 81/209/73 49/210/73 51/194/73 65/193/73
f 78/208/74 46/207/74 49/210/74 81/209/74
f 83/211/75 79/212/75 80/213/75 84/214/75
f 84/214/76 80/213/76 64/215/76 86/216/76
f 89/217/77 77/218/77 79/212/77 83/211/77
f 91/219/78 75/220/78 77/218/78 89/217/78
f 93/221/79 73/222/79 75/220/79 91/219/79
f 95/223/80 71/224/80 73/222/80 93/221/80
f 97/225/81 69/226/81 71/224/81 95/223/81
f 99/227/82 67/228/82 69/226/82 97/225/82
f 86/216/83 64/215/83 67/228/83 99/227/83
f 101/229/84 87/230/84 98/231/84 102/232/84
f 102/232/85 98/231/85 96/233/85 104/234/85
f 104/234/86 96/233/86 94/235/86 106/236/86
f 106/236/87 94/235/87 92/237/87 108/238/87
f 108/238/88 92/237/88 90/239/88 110/240/88
f 110/240/89 90/239/89 88/241/89 112/242/89
f 112/242/90 88/241/90 82/243/90 114/244/90
f 117/245/91 85/246/91 87/230/91 101/229/91
f 114/244/92 82/243/92 85/246/92 117/245/92
f 29/247/93 115/248/93 116/249/93 30/250/93
f 30/250/94 116/249/94 100/251/94 32/252/94
f 35/253/95 113/254/95 115/248/95 29/247/95
f 37/255/96 111/256/96 113/254/96 35/253/96
f 39/257/97 109/258/97 111/256/97 37/255/97
f 41/259/98 107/260/98 109/258/98 39/257/98
f 43/261/99 105/262/99 107/260/99 41/259/99
f 45/263/100 103/264/100 105/262/100 43/261/100
f 32/252/101 100/251/101 103/264/101 45/263/101
f 19/36/102 33/265/102 44/266/102 20/37/102
f 20/37/103 44/266/103 42/267/103 21/38/103
f 21/38/104 42/267/104 40/268/104 22/39/104
f 22/39/105 40/268/105 38/269/105 23/40/105
f 23/270/106 38/271/106 36/272/106 24/273/106
f 24/41/107 36/274/107 34/275/107 25/42/107
f 25/42/108 34/275/108 28/276/108 26/43/108
f 27/44/109 31/277/109 33/265/109 19/36/109
f 26/43/110 28/276/110 31/277/110 27/44/110
usemtl Bark
f 118/278/111 119/279/111 120/280/111 121/281/111
f 121/282/112 120/283/112 122/284/112 123/285/112
f 123/285/113 122/284/113 124/286/113 125/287/113
f 125/288/114 124/289/114 126/290/114 127/291/114
f 127/291/115 126/290/115 128/292/115 129/293/115
f 129/294/116 128/295/116 130/296/116 131/297/116
f 131/297/117 130/296/117 132/298/117 133/299/117
f 120/300/8 119/301/8 134/302/8 132/303/8 130/304/8 128/305/8 126/306/8 124/307/8 122/308/8
f 135/309/118 134/310/118 119/279/118 118/278/118
f 133/311/119 132/312/119 134/310/119 135/309/119
f 136/313/120 137/314/120 138/315/120 139/316/120 140/317/120 141/318/120 142/319/120 143/320/120 144/321/120
f 143/322/121 133/299/121 135/323/121 144/324/121
f 144/325/122 135/309/122 118/278/122 136/326/122
f 142/327/123 131/297/123 133/299/123 143/322/123
f 141/328/124 129/294/124 131/297/124 142/327/124
f 140/329/125 127/291/125 129/293/125 141/330/125
f 139/331/126 125/288/126 127/291/126 140/329/126
f 138/332/127 123/285/127 125/287/127 139/333/127
f 137/334/128 121/282/128 123/285/128 138/332/128
f 136/326/129 118/278/129 121/281/129 137/335/129
